<?xml version="1.0" encoding="utf-8"?>
<!-- Generator: Adobe Illustrator 27.9.4, SVG Export Plug-In . SVG Version: 9.03 Build 54784)  -->
<svg version="1.1" id="Layer_1" xmlns="http://www.w3.org/2000/svg" xmlns:xlink="http://www.w3.org/1999/xlink" x="0px" y="0px"
	 viewBox="0 0 1000 500" style="enable-background:new 0 0 1000 500;" xml:space="preserve">
<style type="text/css">
	.st0{fill:#FFFFFF;}
</style>
<g>
	<path class="st0" d="M133.62,276.94c29.24-45.21,69.08-105.25,119.51-180.16c22.73-34.1,40.77-62.36,54.11-84.79
		c0.75-1.27,2.11-2.04,3.59-2.04l0.04,0c1.49,0,3.58,0.15,6.27,0.45c2.15,0.24,4.21,0.58,6.17,1.01
		c0.69,0.15,18.78,70.82,18.93,70.12c0-0.01-4.91-27.23-4.9-27.24c0.12-0.56-10.14-44.68-9.57-44.71c1.12-0.06,1.6-0.31,4.82-0.52
		c4.62-0.29,10.36,0,17.23,0.89c6.86,0.9,13.43,2.01,19.69,3.36c6.27,1.34,11.19,3.58,14.77,6.71c3.58,3.13,4.62,6.64,3.13,10.52
		l-0.84,3.35c-0.04,0.15-0.08,0.29-0.14,0.44c-0.88,2.37-1.97,5.5-3.28,9.41c-1.34,4.03-2.84,8.73-4.48,14.1
		c-1.64,5.37-3.43,11.57-5.37,18.58c-1.95,7.01-3.88,14.32-5.82,21.93c-1.94,7.61-3.88,15.97-5.82,25.07
		c-1.95,9.11-3.66,18.13-5.15,27.08c-12.83,78.48-21.48,134.13-25.96,166.95c-3.29,18.5-0.9,25.22,7.16,20.14
		c1.19-0.59,2.53-1.64,4.03-3.13c10.74-9.55,23.42-28.49,38.04-56.84c4.77-8.95,7.9-13.57,9.4-13.88c0.9-0.29,1.34,1.34,1.34,4.92
		c0,4.48-2.24,10.6-6.71,18.35c-17.01,30.14-31.19,51.18-42.52,63.11c-16.71,18.21-30.44,25.07-41.18,20.59
		c-7.46-2.98-11.57-12.46-12.31-28.42c-0.75-15.93,0.67-34.62,4.23-56.05c0.01-0.08,0.02-0.16,0.03-0.24l2.58-24.65
		c0.37-3.51-2.21-6.22-5.74-6.07c-34.9,1.48-54.95,9.57-69.56,15.34c-67.88,26.8-312.34,111.24-133.71,128.7
		c1550.03,151.5,491.41,48.9-15.6,34.94l-34.51,47.17c-3.53,6.63-10.78,10.62-18.21,9.56 M296.95,240.15
		c7.74-73.94,14.01-130.35,18.81-169.24c0.53-4.26-4.83-6.57-7.57-3.28c-8.81,10.59-18.96,23.14-30.45,37.66
		c-7.56,9.58-36.3,52.52-86.24,128.8c-1.83,2.8,0.09,6.54,3.44,6.68c49.64,2,82.2,3.08,97.68,3.25
		C294.84,244.05,296.72,242.36,296.95,240.15z"/>
	<path class="st0" d="M391.66,406.64c-11.09,3.17-20.33,2.94-27.72-0.68c-7.4-3.62-13.07-11.92-17.03-24.88
		c-3.96-12.95-1.78-22.68,2.42-47.37c2.3-16.41,63.97-99.25,71.61-139.42c7.64-40.16-118.09,262.84-43.87-39.86
		c0.21-0.92,5.78-1.38,16.73-1.4c10.94-0.01,21.56,1.36,31.88,4.1c10.31,2.75,14.83,6.88,13.57,12.4c0.03,0.3-1.25,4.1-3.84,11.39
		c-2.59,7.3-5.94,18.34-10.05,33.13c-4.11,14.79-8.1,31.67-11.95,50.63c21.02-64.39,43.72-97.78,68.08-100.15
		c17.52-1.7,28.36,8.04,32.52,29.22c4.15,21.18,2,50.02-6.44,86.52c-13.78,61.9-18.02,95.44-12.72,100.62
		c1.01,1.1,2.58,0.35,4.73-2.26c5.33-6.81,13.19-19.27,23.58-37.37s18.35-34.01,23.92-47.74c3.88-9.37,6.55-14.27,8.01-14.72
		c0.86-0.38,1.47,1.21,1.81,4.77c0.43,4.45-1.2,10.76-4.91,18.91c-17.37,40.36-33.75,70.89-49.12,91.56
		c-7.4,10.31-15.23,17.67-23.49,22.07c-8.27,4.4-15.22,5.37-20.85,2.92c-10.35-4.69-16-18.91-16.96-42.65
		c-0.96-23.74,2.63-53.99,10.75-90.76c2.07-9.49,7.99-31.95,17.74-67.38c3.3-12.31,3.24-19.05-0.16-20.22
		c-0.92-0.21-2.12-0.24-3.61-0.1c-23.46,2.28-47.62,63.84-72.46,184.67L391.66,406.64z"/>
	<path class="st0" d="M953.86,125.72c-10.74,12.53-314.44,30.87-340.4,33.56c-6.57,16.41-13.13,34.46-19.69,54.16
		c-20.89,63.86-34.47,114.29-40.73,151.29c-2.99,18.5-3.13,27.9-0.45,28.2c1.49,0,5.22-2.38,11.19-7.16
		c8.06-6.27,20.88-26.56,38.49-60.87c4.77-8.95,7.9-13.57,9.4-13.88c0.89-0.29,1.34,1.34,1.34,4.92c0,4.48-2.24,10.6-6.71,18.35
		c-17.01,30.14-31.18,51.18-42.52,63.11c-16.71,18.21-30.44,25.07-41.18,20.59c-8.66-3.58-14.7-13.13-18.13-28.65
		c-3.43-15.51-2.61-34.16,2.46-55.95c1.79-7.76,8.5-31.25,20.14-70.5c11.64-39.23,61.33-71.39,69.09-100.03
		c-10.15,0-58.2-1.94-64.17-2.24c-2.99-5.66-2.91-11.56,0.22-17.68c3.13-6.11,8.13-9.32,14.99-9.62h16.11
		c1.79-6.27,4.18-15.44,7.16-27.53c2.98-12.09,4.92-20.07,5.82-23.95c1.79,0,7.9,0,18.35,0c10.44,0,20.96,1.94,31.56,5.82
		c10.59,3.88,14.69,8.95,12.31,15.22c-5.37,10.45-10.15,20.59-14.32,30.44h44.76C669.86,133.32,955.05,123.64,953.86,125.72z"/>
	<path class="st0" d="M761,279.7c-2.66,10.95-3.74,22.4-9.99,32.49c-6.25,10.09-16.9,17.29-25.21,23.5
		c-5.43,26.32-15.28,48.29-29.56,65.91c-14.28,17.63-29.64,29.15-46.06,34.6c-18.7,6.19-36.71-0.72-54.03-20.76
		c-17.33-20.03-26.34-45.34-27.04-75.91c-0.52-27.18,3.23-51.68,11.24-73.51c8.01-21.82,18.4-39.1,31.15-51.81
		c0,0,0.01-0.01,0.01-0.01c5.24-25.93,17.9-42.23,38.02-48.9c11.05-3.66,21.68-2.15,31.91,4.51c10.23,6.68,18.75,16.5,25.57,29.49
		c6.82,12.99,12.36,27.58,16.62,43.77c4.26,16.2,6.43,31.98,6.5,47.36c-0.21,13.58-0.84,24-1.89,31.26c0,0.01,0.01,0.01,0.01,0.01
		c21.62-13.68,23.11-31.7,25.97-49.62c1.71-10,3.23-15.37,4.56-16.13c0.85-0.28,1.84,1.28,2.96,4.68
		C763.34,265.41,763.09,271.78,761,279.7z M653.6,422.32c15.29-5.07,23.5-31.04,24.62-77.93c0-0.01-0.01-0.02-0.02-0.02
		c-21.02-6.55-38.4-22.95-52.12-49.2c0,0,0,0,0,0c-1.77-2.52-3.22-5.47-4.34-8.83c-0.01-0.02-0.04-0.02-0.04,0
		c-0.58,8.67-0.55,20.58,0.08,35.71c0.81,18.59,2.58,35.77,5.29,51.53c2.71,15.77,6.39,28.3,11.04,37.6
		C642.77,420.49,647.93,424.2,653.6,422.32z M638.27,285c11,21.81,24.27,37.21,39.82,46.21c0,0,0.01,0,0.01-0.01
		c0.2-5.09,0.12-12.92-0.24-23.48c-1.01-19.15-1.87-34.11-2.61-44.87c-0.74-10.76-2.25-24.08-4.53-39.99
		c-2.29-15.9-5.59-27.3-9.92-34.2c-4.33-6.89-9.61-9.31-15.84-7.25c-8.49,2.81-14.67,9.73-18.56,20.73c0,0.01,0.01,0.03,0.02,0.02
		c10.75-6.38,20.31-7.81,28.7-4.32c0,0,0.01,0,0.01,0.01c3.11,1.8,4.89,3.64,5.36,5.53c0.47,1.89,0.37,3.73-0.29,5.52l-1.16,3.12
		c-17.8-31.89-99.85,71.48-37.46,53.7c0.97-0.28-13.64,16.44-13.43,17.43C610.5,294.07,632.13,273.65,638.27,285z"/>
	<path class="st0" d="M787.48,430.62c-10.69,4.32-19.91,5.07-27.64,2.25c-7.74-2.82-14.26-10.47-19.56-22.94
		c-5.3-12.46-7.17-31.2-5.6-56.2c0.55-16.56,52.5-57.44,54.05-98.3c1.14-30.28-86.85,206.27-42.38-74.07
		c0.11-0.94,5.6-1.99,16.49-3.16c10.88-1.16,21.59-0.93,32.13,0.71c10.54,1.65,15.48,5.28,14.8,10.9c0.06,0.29-0.81,4.21-2.62,11.73
		c-1.81,7.53-3.97,18.86-6.5,34c-2.53,15.14-4.71,32.35-6.54,51.61c14.11-66.25,33.15-101.85,57.13-106.77
		c17.24-3.54,29.05,5,35.42,25.63c6.36,20.63,7.27,49.53,2.73,86.71c-7.17,63.01-7.84,96.81-2.03,101.4
		c1.12,0.99,2.6,0.08,4.46-2.74c4.58-7.34,11.09-20.55,19.5-39.65c8.42-19.09,14.87-35.7,18.75-50
		c11.1-40.88,64.63-310.21,1.69-67.06c-0.24,0.91,6.31,52.62,7.03,56.13c0.9,4.38-0.06,10.83-2.89,19.33
		c-13.02,41.97-26.08,74.05-39.18,96.23c-6.27,11.03-13.28,19.18-21.03,24.42c-7.76,5.25-14.57,6.95-20.43,5.11
		c-10.79-3.57-17.91-17.11-21.36-40.62c-3.46-23.51-3.09-53.97,1.11-91.39c1.06-9.66,4.57-32.62,10.53-68.87
		c1.98-12.59,1.22-19.28-2.3-20.09c-0.94-0.11-2.14-0.02-3.6,0.28c-23.09,4.74-40.61,68.5-52.57,191.28L787.48,430.62z"/>
</g>
</svg>
